<svg width="194" height="194" viewBox="0 0 194 194" fill="none" xmlns="http://www.w3.org/2000/svg">
<g clip-path="url(#clip0_22_1013)">
<path d="M41.8313 19.2702L40.537 18.4874L40.537 20L40.537 37.0574L40.537 37.5315L40.9396 37.7818L142.46 100.894L143.763 101.704L143.763 100.17L143.763 81.4068L143.763 80.9259L143.352 80.6771L41.8313 19.2702Z" fill="#FF1A44" stroke="#5C0112" stroke-width="1.70575"/>
<path d="M41.0757 98.4644L41.0757 97.0665L42.3188 97.706L57.356 105.442L57.8187 105.68L57.8187 106.201L57.8187 158.165L57.8187 159.018L56.9659 159.018L41.9286 159.018L41.0757 159.018L41.0757 158.165L41.0757 98.4644Z" fill="white" stroke="white" stroke-width="1.70575"/>
<path d="M126.425 50.1627L125.269 50.88L126.418 51.608L139.211 59.711L139.67 60.0018L140.128 59.7086L158.193 48.1283L158.193 159.63L158.193 160.482L159.046 160.482L172.077 160.482L172.924 160.482L172.93 159.635L173.783 22.3223L173.792 20.7784L172.48 21.5923L126.425 50.1627Z" fill="white" stroke="white" stroke-width="1.70575"/>
<path d="M11.0802 38.0398L9.77591 37.2263L9.77591 38.7634L9.77591 158.166L9.77591 159.018L10.6288 159.018L25.9682 159.018L26.8211 159.018L26.8211 158.166L26.8211 67.1036L75.3466 97.8891L75.8029 98.1785L76.2595 97.8897L90.3896 88.9508L91.537 88.2249L90.385 87.5064L11.0802 38.0398Z" fill="white" stroke="white" stroke-width="1.70575"/>
</g>
<defs>
<clipPath id="clip0_22_1013">
<rect width="194" height="194" fill="white"/>
</clipPath>
</defs>
</svg>
