<svg width="1420" height="191" viewBox="0 0 1420 191" fill="none" xmlns="http://www.w3.org/2000/svg">
<g clip-path="url(#clip0_31_1045)">
<path d="M176.078 32.2595L174.842 33.0265L176.071 33.8051L189.753 42.4713L190.244 42.7823L190.733 42.4686L210.054 30.0836L210.054 149.333L210.054 150.245L210.966 150.245L224.902 150.245L225.808 150.245L225.814 149.338L226.726 2.48455L226.737 0.833292L225.333 1.70378L176.078 32.2595Z" fill="white" stroke="white" stroke-width="1.82427"/>
<path d="M35.8024 2.14019L34.4182 1.30291L34.4182 2.92065L34.4182 21.1634L34.4182 21.6703L34.8487 21.938L143.423 89.436L144.817 90.3024L144.817 88.6613L144.817 68.5944L144.817 68.0801L144.377 67.8139L35.8024 2.14019Z" fill="#FF1A44" stroke="#5C0112" stroke-width="1.82427"/>
<path d="M34.9951 86.8364L34.9951 85.3414L36.3245 86.0253L52.4066 94.2991L52.9015 94.5537L52.9015 95.1102L52.9015 150.686L52.9015 151.598L51.9894 151.598L35.9072 151.598L34.9951 151.598L34.9951 150.686L34.9951 86.8364Z" fill="white" stroke="white" stroke-width="1.82427"/>
<path d="M126.274 35.1801L125.037 35.9472L126.266 36.7258L139.948 45.3919L140.439 45.7029L140.929 45.3892L160.249 33.0043L160.249 152.253L160.249 153.165L161.161 153.165L175.098 153.165L176.004 153.165L176.01 152.259L176.922 5.4052L176.932 3.75395L175.529 4.62443L126.274 35.1801Z" fill="white" stroke="white" stroke-width="1.82427"/>
<path d="M2.91486 22.2144L1.51999 21.3443L1.51999 22.9883L1.51999 150.687L1.52 151.599L2.43213 151.599L18.8375 151.599L19.7496 151.599L19.7496 150.687L19.7496 53.2977L71.6469 86.2223L72.1349 86.5319L72.6232 86.223L87.7352 76.663L88.9623 75.8867L87.7303 75.1182L2.91486 22.2144Z" fill="white" stroke="white" stroke-width="1.82427"/>
</g>
<path d="M267.959 28.0678H289.757L321.854 119.808L353.95 28.0678H375.748L330.607 153.021H313.1L267.959 28.0678ZM256.202 28.0678H277.914L281.862 117.491V153.021H256.202V28.0678ZM365.793 28.0678H387.591V153.021H361.845V117.491L365.793 28.0678ZM434.706 60.1642V153.021H409.904V60.1642H434.706ZM408.359 35.9632C408.359 32.3588 409.618 29.3837 412.135 27.038C414.653 24.6923 418.028 23.5194 422.262 23.5194C426.438 23.5194 429.785 24.6923 432.303 27.038C434.877 29.3837 436.165 32.3588 436.165 35.9632C436.165 39.5676 434.877 42.5426 432.303 44.8884C429.785 47.2341 426.438 48.407 422.262 48.407C418.028 48.407 414.653 47.2341 412.135 44.8884C409.618 42.5426 408.359 39.5676 408.359 35.9632ZM479.332 79.9884V153.021H454.616V60.1642H477.787L479.332 79.9884ZM475.727 103.331H469.033C469.033 96.4657 469.92 90.2867 471.694 84.7943C473.467 79.2446 475.956 74.5246 479.16 70.6341C482.364 66.6864 486.169 63.6828 490.574 61.6231C495.037 59.5062 500.014 58.4478 505.507 58.4478C509.855 58.4478 513.831 59.0771 517.435 60.3358C521.04 61.5945 524.129 63.5969 526.704 66.3432C529.336 69.0894 531.338 72.7224 532.711 77.2422C534.142 81.762 534.857 87.283 534.857 93.8053V153.021H509.969V93.7195C509.969 89.6002 509.397 86.3962 508.253 84.1077C507.108 81.8192 505.421 80.2173 503.189 79.3019C501.015 78.3292 498.326 77.8429 495.122 77.8429C491.804 77.8429 488.915 78.5009 486.455 79.8168C484.052 81.1327 482.049 82.9635 480.447 85.3092C478.903 87.5977 477.73 90.2867 476.929 93.3762C476.128 96.4657 475.727 99.784 475.727 103.331ZM608.49 132.767V21.2023H633.377V153.021H610.978L608.49 132.767ZM549.789 107.708V105.906C549.789 98.8114 550.59 92.375 552.192 86.5965C553.794 80.7608 556.14 75.7547 559.229 71.5781C562.319 67.4016 566.123 64.1691 570.643 61.8806C575.163 59.5921 580.312 58.4478 586.091 58.4478C591.526 58.4478 596.275 59.5921 600.337 61.8806C604.456 64.1691 607.946 67.4302 610.807 71.6639C613.724 75.8405 616.07 80.7894 617.844 86.5107C619.617 92.1747 620.905 98.3823 621.706 105.133V109.081C620.905 115.546 619.617 121.553 617.844 127.103C616.07 132.653 613.724 137.516 610.807 141.692C607.946 145.812 604.456 149.016 600.337 151.304C596.217 153.593 591.412 154.737 585.919 154.737C580.141 154.737 574.991 153.564 570.472 151.218C566.009 148.873 562.233 145.583 559.144 141.349C556.111 137.115 553.794 132.138 552.192 126.417C550.59 120.695 549.789 114.459 549.789 107.708ZM574.505 105.906V107.708C574.505 111.541 574.791 115.117 575.363 118.435C575.993 121.754 576.994 124.7 578.367 127.275C579.797 129.792 581.628 131.766 583.859 133.196C586.148 134.569 588.923 135.256 592.184 135.256C596.418 135.256 599.908 134.312 602.654 132.424C605.4 130.479 607.488 127.818 608.919 124.443C610.406 121.067 611.264 117.177 611.493 112.771V101.529C611.322 97.9246 610.807 94.6921 609.948 91.8315C609.147 88.9136 607.946 86.4248 606.344 84.3652C604.799 82.3055 602.854 80.7036 600.508 79.5593C598.22 78.4151 595.502 77.8429 592.356 77.8429C589.152 77.8429 586.405 78.5867 584.117 80.0742C581.828 81.5045 579.969 83.4784 578.539 85.9957C577.166 88.5131 576.136 91.4882 575.449 94.9209C574.82 98.2965 574.505 101.958 574.505 105.906ZM747.431 39.1385L706.066 153.021H689.16L736.789 28.0678H747.688L747.431 39.1385ZM782.102 153.021L740.651 39.1385L740.394 28.0678H751.293L799.094 153.021H782.102ZM779.956 106.764V120.323H709.756V106.764H779.956ZM850.585 141.692C854.361 141.692 857.851 140.92 861.055 139.375C864.259 137.831 866.891 135.714 868.951 133.025C871.01 130.278 872.183 127.16 872.469 123.67H887.573C887.287 129.163 885.428 134.283 881.995 139.032C878.62 143.723 874.186 147.528 868.693 150.446C863.201 153.307 857.165 154.737 850.585 154.737C843.605 154.737 837.512 153.507 832.306 151.047C827.157 148.587 822.866 145.211 819.433 140.92C816.057 136.629 813.512 131.709 811.795 126.159C810.136 120.552 809.306 114.631 809.306 108.395V104.79C809.306 98.554 810.136 92.661 811.795 87.1114C813.512 81.5045 816.057 76.5556 819.433 72.2647C822.866 67.9737 827.157 64.5982 832.306 62.138C837.512 59.6779 843.605 58.4478 850.585 58.4478C857.851 58.4478 864.202 59.9353 869.637 62.9104C875.072 65.8282 879.335 69.8331 882.424 74.9251C885.571 79.9598 887.287 85.6811 887.573 92.0889H872.469C872.183 88.2557 871.096 84.7943 869.208 81.7048C867.377 78.6153 864.86 76.1552 861.656 74.3243C858.509 72.4363 854.819 71.4923 850.585 71.4923C845.722 71.4923 841.632 72.4649 838.313 74.4102C835.052 76.2982 832.449 78.8728 830.504 82.1339C828.616 85.3378 827.243 88.9136 826.384 92.8613C825.583 96.7517 825.183 100.728 825.183 104.79V108.395C825.183 112.457 825.583 116.462 826.384 120.409C827.185 124.357 828.53 127.933 830.418 131.137C832.363 134.341 834.966 136.915 838.227 138.86C841.546 140.748 845.665 141.692 850.585 141.692ZM960.176 137.144V89.3427C960.176 85.6811 959.433 82.5058 957.945 79.8168C956.515 77.0706 954.341 74.9537 951.423 73.4662C948.505 71.9786 944.901 71.2349 940.61 71.2349C936.605 71.2349 933.086 71.9214 930.054 73.2945C927.079 74.6676 924.733 76.4698 923.017 78.7011C921.358 80.9324 920.528 83.3354 920.528 85.9099H904.651C904.651 82.5916 905.51 79.3019 907.226 76.0407C908.942 72.7796 911.403 69.8331 914.606 67.2014C917.868 64.5124 921.758 62.3955 926.278 60.8507C930.855 59.2488 935.947 58.4478 941.554 58.4478C948.305 58.4478 954.255 59.5921 959.404 61.8806C964.61 64.1691 968.673 67.6304 971.59 72.2647C974.565 76.8417 976.053 82.5916 976.053 89.5143V132.767C976.053 135.857 976.31 139.146 976.825 142.636C977.397 146.126 978.227 149.13 979.314 151.647V153.021H962.751C961.95 151.19 961.321 148.758 960.863 145.726C960.405 142.636 960.176 139.776 960.176 137.144ZM962.923 96.7231L963.094 107.88H947.046C942.526 107.88 938.493 108.252 934.946 108.995C931.398 109.682 928.423 110.74 926.02 112.171C923.617 113.601 921.787 115.403 920.528 117.577C919.269 119.694 918.64 122.183 918.64 125.043C918.64 127.961 919.298 130.622 920.614 133.025C921.93 135.428 923.904 137.344 926.535 138.775C929.224 140.148 932.514 140.834 936.405 140.834C941.268 140.834 945.559 139.804 949.277 137.745C952.996 135.685 955.943 133.168 958.117 130.193C960.348 127.218 961.55 124.328 961.721 121.525L968.501 129.163C968.1 131.566 967.013 134.226 965.24 137.144C963.466 140.062 961.092 142.865 958.117 145.554C955.199 148.186 951.709 150.389 947.647 152.162C943.642 153.879 939.122 154.737 934.087 154.737C927.794 154.737 922.273 153.507 917.524 151.047C912.833 148.587 909.171 145.297 906.539 141.177C903.965 137.001 902.678 132.338 902.678 127.189C902.678 122.211 903.65 117.835 905.595 114.059C907.541 110.225 910.344 107.05 914.006 104.533C917.667 101.958 922.073 100.013 927.222 98.697C932.371 97.3811 938.121 96.7231 944.472 96.7231H962.923ZM1059.56 134.998V21.2023H1075.52V153.021H1060.93L1059.56 134.998ZM997.079 107.622V105.82C997.079 98.7256 997.937 92.2892 999.653 86.5107C1001.43 80.675 1003.92 75.6688 1007.12 71.4923C1010.38 67.3158 1014.24 64.1119 1018.71 61.8806C1023.22 59.5921 1028.26 58.4478 1033.81 58.4478C1039.64 58.4478 1044.74 59.4776 1049.09 61.5373C1053.49 63.5397 1057.21 66.4862 1060.24 70.3767C1063.33 74.2099 1065.76 78.8442 1067.54 84.2794C1069.31 89.7146 1070.54 95.865 1071.23 102.73V110.626C1070.6 117.434 1069.37 123.556 1067.54 128.991C1065.76 134.426 1063.33 139.061 1060.24 142.894C1057.21 146.727 1053.49 149.674 1049.09 151.733C1044.68 153.736 1039.53 154.737 1033.64 154.737C1028.2 154.737 1023.22 153.564 1018.71 151.218C1014.24 148.873 1010.38 145.583 1007.12 141.349C1003.92 137.115 1001.43 132.138 999.653 126.417C997.937 120.638 997.079 114.373 997.079 107.622ZM1013.04 105.82V107.622C1013.04 112.256 1013.5 116.605 1014.41 120.667C1015.39 124.729 1016.87 128.305 1018.88 131.394C1020.88 134.484 1023.43 136.915 1026.51 138.689C1029.6 140.405 1033.29 141.263 1037.59 141.263C1042.85 141.263 1047.17 140.148 1050.54 137.916C1053.98 135.685 1056.72 132.739 1058.78 129.077C1060.84 125.415 1062.44 121.439 1063.59 117.148V96.4657C1062.9 93.319 1061.9 90.2867 1060.58 87.3689C1059.33 84.3938 1057.67 81.762 1055.61 79.4735C1053.6 77.1278 1051.12 75.2684 1048.14 73.8952C1045.22 72.5221 1041.76 71.8356 1037.76 71.8356C1033.41 71.8356 1029.66 72.751 1026.51 74.5818C1023.43 76.3554 1020.88 78.8155 1018.88 81.9622C1016.87 85.0517 1015.39 88.6561 1014.41 92.7755C1013.5 96.8376 1013.04 101.186 1013.04 105.82ZM1138.77 154.737C1132.3 154.737 1126.44 153.65 1121.17 151.476C1115.97 149.244 1111.48 146.126 1107.7 142.121C1103.98 138.117 1101.12 133.368 1099.12 127.875C1097.12 122.383 1096.11 116.376 1096.11 109.853V106.249C1096.11 98.697 1097.23 91.9745 1099.46 86.0816C1101.69 80.1314 1104.72 75.0967 1108.56 70.9774C1112.39 66.8581 1116.74 63.74 1121.6 61.6231C1126.47 59.5062 1131.5 58.4478 1136.71 58.4478C1143.34 58.4478 1149.06 59.5921 1153.87 61.8806C1158.73 64.1691 1162.71 67.373 1165.8 71.4923C1168.89 75.5544 1171.18 80.3603 1172.66 85.9099C1174.15 91.4024 1174.9 97.4097 1174.9 103.932V111.055H1105.55V98.0962H1159.02V96.8948C1158.79 92.7755 1157.93 88.7706 1156.44 84.8801C1155.01 80.9896 1152.73 77.7857 1149.58 75.2684C1146.43 72.751 1142.14 71.4923 1136.71 71.4923C1133.1 71.4923 1129.78 72.2647 1126.75 73.8094C1123.72 75.297 1121.12 77.5283 1118.94 80.5033C1116.77 83.4784 1115.08 87.1114 1113.88 91.4024C1112.68 95.6933 1112.08 100.642 1112.08 106.249V109.853C1112.08 114.259 1112.68 118.407 1113.88 122.297C1115.14 126.131 1116.94 129.506 1119.29 132.424C1121.69 135.342 1124.58 137.63 1127.95 139.289C1131.39 140.949 1135.28 141.778 1139.62 141.778C1145.23 141.778 1149.98 140.634 1153.87 138.345C1157.76 136.057 1161.16 132.996 1164.08 129.163L1173.69 136.801C1171.69 139.833 1169.15 142.722 1166.06 145.468C1162.97 148.215 1159.16 150.446 1154.64 152.162C1150.18 153.879 1144.89 154.737 1138.77 154.737ZM1209.22 78.6153V153.021H1193.26V60.1642H1208.37L1209.22 78.6153ZM1205.96 103.074L1198.58 102.816C1198.64 96.4657 1199.47 90.6014 1201.07 85.2234C1202.67 79.7882 1205.05 75.0681 1208.19 71.0632C1211.34 67.0583 1215.26 63.9688 1219.95 61.7947C1224.64 59.5634 1230.08 58.4478 1236.26 58.4478C1240.6 58.4478 1244.61 59.0771 1248.27 60.3358C1251.93 61.5373 1255.11 63.4539 1257.8 66.0857C1260.49 68.7175 1262.57 72.093 1264.06 76.2124C1265.55 80.3317 1266.29 85.3092 1266.29 91.1449V153.021H1250.42V91.9173C1250.42 87.0542 1249.59 83.1637 1247.93 80.2459C1246.33 77.328 1244.04 75.2111 1241.06 73.8952C1238.09 72.5221 1234.6 71.8356 1230.59 71.8356C1225.9 71.8356 1221.98 72.6652 1218.84 74.3243C1215.69 75.9835 1213.17 78.272 1211.28 81.1899C1209.4 84.1077 1208.02 87.4547 1207.16 91.2307C1206.36 94.9495 1205.96 98.8972 1205.96 103.074ZM1266.12 94.3202L1255.48 97.5813C1255.54 92.4894 1256.37 87.5977 1257.97 82.9063C1259.63 78.2148 1262 74.0383 1265.09 70.3767C1268.24 66.715 1272.1 63.8258 1276.68 61.7089C1281.25 59.5348 1286.49 58.4478 1292.38 58.4478C1297.36 58.4478 1301.77 59.1057 1305.6 60.4216C1309.49 61.7375 1312.75 63.7686 1315.38 66.5148C1318.07 69.2038 1320.1 72.6652 1321.48 76.8989C1322.85 81.1327 1323.53 86.1674 1323.53 92.0031V153.021H1307.57V91.8315C1307.57 86.6251 1306.74 82.5916 1305.08 79.7309C1303.48 76.8131 1301.19 74.782 1298.22 73.6378C1295.3 72.4363 1291.81 71.8356 1287.75 71.8356C1284.26 71.8356 1281.17 72.4363 1278.48 73.6378C1275.79 74.8393 1273.53 76.4984 1271.7 78.6153C1269.87 80.675 1268.47 83.0493 1267.49 85.7383C1266.58 88.4273 1266.12 91.2879 1266.12 94.3202ZM1373.65 143.409L1399.48 60.1642H1416.48L1379.23 167.352C1378.37 169.641 1377.23 172.101 1375.8 174.733C1374.43 177.422 1372.65 179.968 1370.48 182.371C1368.3 184.774 1365.67 186.719 1362.58 188.206C1359.55 189.751 1355.92 190.523 1351.68 190.523C1350.42 190.523 1348.82 190.352 1346.88 190.009C1344.93 189.665 1343.56 189.379 1342.76 189.15L1342.67 176.277C1343.13 176.335 1343.85 176.392 1344.82 176.449C1345.85 176.564 1346.56 176.621 1346.96 176.621C1350.57 176.621 1353.63 176.134 1356.15 175.162C1358.66 174.246 1360.78 172.673 1362.5 170.442C1364.27 168.268 1365.79 165.264 1367.05 161.431L1373.65 143.409ZM1354.69 60.1642L1378.8 132.252L1382.92 148.987L1371.51 154.823L1337.35 60.1642H1354.69Z" fill="white"/>
<defs>
<clipPath id="clip0_31_1045">
<rect width="176.948" height="155.862" fill="white"/>
</clipPath>
</defs>
</svg>
